<mxfile host="65bd71144e">
    <diagram id="XsfiZjCarhUA_ZBko04b" name="ページ1">
        <mxGraphModel dx="959" dy="861" grid="1" gridSize="10" guides="1" tooltips="1" connect="1" arrows="1" fold="1" page="1" pageScale="1" pageWidth="827" pageHeight="1169" math="0" shadow="0">
            <root>
                <mxCell id="0"/>
                <mxCell id="1" parent="0"/>
                <mxCell id="2" value="" style="shape=image;imageAspect=0;aspect=fixed;verticalLabelPosition=bottom;verticalAlign=top;image=data:image/png,iVBORw0KGgoAAAANSUhEUgAAAyIAAAJ4CAIAAAAWTcAsAAAAAXNSR0IArs4c6QAAAARnQU1BAACxjwv8YQUAAAAJcEhZcwAADsMAAA7DAcdvqGQAACWWSURBVHhe7d39s+YHWR7w/BmLkq2bZQYhgsEwEdLsJksQU4kYl1iTsU3U4hutMlINBcGKKDOgfXEiCIQgJLxpi3aIb0SEZFKkhorQUbQMSGcqvrS2vjRt7U/0u/lePl3P5k7Os8+503t3P5+53XnOc65z9nL5znjN2RAvOnr0SetdcsnRJz/5Sy+//JlXXnnlNdecuPba517AB3Chu/76G67ehxe+8IV5dfa+5taX3Pad33D1jd9x20tu+Zq89/8sn33JrWe+vb0XvOAFeXWg3vGOd+TVXzvznW09ynfYfGp5sZ/YPj16vvrsnvfvuuuuvHpUjx67++678+oM1ac2758Z2PPOo3zzjSVzpnzuDJtPXXXVVc985jOf9rSnHTly5ImnWWfW0WVjXXbZM776edfd+aY777/3/s9/5vP/58/+yjnnnHPOPeZ9/jN/cN8HPvzWn7rjuc997pd92ZdlZD08s05trGc961kvv+3lv/+p39/zZc4555xzbp/3+5/67Mu+77Yrrrji4osvPjWz1p9jLRtrT84555xzzp3F3faPb1t/pnXRk5/8pV/9vOs+5+dYzjnnnHMHcf/tD/70ve9975EjRy66/PJn3vmmO/d82jnnnHPOnfXd8cY77rnnnoue/ewr77/3/j2fc84555xzZ333feDD73vf+y665poTn//MH+z53Jn3H37j/h/7wSf+/J2H7/iXN27efOCD9y+3+dA555xzzi3353/0Z1ddddVF11773D2feMS7+/YnfviDtz/4mx/9nY/c8LNvvfRPfu/H3nn7Fz/wi1/30V+49K/+9BN7ws4555xzF/hdffXV+5pZD37wdQ/e9z1//F//ZLl/+5EPPPTZyz730S/51G//4vLhxz/27mVp7ck755xzzl3gt6+Z9cAH77/vXx/+2AOvXmfWgx//2EOfPvqJj3zn+uFyn/y1S9/6htft+SrnnHPOuUe/z/72Zz764V9/xFs+tSfcekeOHL33nnv3vLnc8uYllzxpz5v7vH3NrNtf9/V/+JtHPvnR718W1fe97MVveeO3PzyzXvQTP/kTyzv/6T9/9nMf/ZIHfvkcnlmv/aEfveTIJXvefMT7jm/99rvvvGvPm84555w7u1vm1J//0Z/9rz/9n3vuL//4L5ZP7Qm33jKnDh06tGdpPeKb+799zaz3v+2Ll5m1bKn77331b3zoWz75a5f+3n2H7/u5L3/FD7x4mVkf/9i7H/rsZW+//YL4e0MzyznnnDvAW7bUMqr2vLne4zyzltszqnbcWMvta2b9yMu+aJlZD7zviQ99+uip++xlp+7hFz/3rpv/8BNPX14s22vPV52XZ2Y555xzB3ijZtZym2m1+8Zabl8z65+97vW3v+ZQNtZmaX366LK9HvrcsU/ee3j59Zf+1fV7vmpzF1100TJNll8Xy0xZ3rnkyCWbsbK8WN987Q/96JpZX6yfXd9ZrJn1nc13Wz5cvtXy4quu/ar1s5t3Fnv20PL+7/3W7y4vPvTLH9r8FeE6m07vsP4F4vLlm8xy6zdc3lnz65trbLH+7ptvstzyzhpbfsfTv49zzjnnTr9pM2u5dWDtvrGWu+uuux57Zr3iFS/74df+8AfefTgD62/eg79w8c+++fB//Ph9e75qc8sQOX0kLStnzyJZtsjy5vKp9Z3TZ9bmlrGyjqTNd1t+XV6vby6fXb7D8mL5buuL9c31xXrLt12nz/KFm++2ZjZ91t96/dRmKi2ZzWZaPru+Xj67hJcXyy1fu375+t2W2PJifWcJb2LOOefcnFv+L9qj2BPuu/N7Zj32T7Pe/ta3ffJ3Pr7cK1/9yl96z6m/Hzz9PnbvZd/9D7/27jse7Z9/P/0/rWVzrLNjfXNZJMteOf399TZfsrx56j/th63rZ3mxfmqzjZZbXqzrZ01ubCbXcsvr9fda99PynZd3NmNofXF6jfX1upnWd5Y7/TfavLnJLN95+Z5LYLnNO2tt55xzzp1502bWurGWXzcv9gS2unVmXbvn3dPvnve/7xO//evf+E0n/8711/3qh3/ltT/+2nfe8YKf+elrX/nSi7/ua77on7zqld/24u+66+537vmq0+/0RbIMl3WmrC/2fLiJrV+yvLkZUstq2efMWt95xFu+yTqtlm+1DKDNb7r5Vss7y63h9fWaXN9Z7hF/o01m+dTyJeu0WpLL73X6RHPOOefcnhs1s/ZMq92X1jve8Y7HmFmf/t1P/bt/f+8ys57/tdfe/5FffultL/3pu+/42Z975yv+7gtfddP13//yl/3kddcuv+75qtNvWSTrNFnGx/J6+XV9vcyRzQpZApvXy1JZR8w6dJYXy17ZfOFm32y20XKb9bOOp/XNM2+JLYHluy2vlxfrHlpeb77V5nc8/fXyO65fsvY/8zdavnZ9vf4vtdzyevmS5cWmoXPOOefOvGVL/eUf/8WeN5d76L/8j8d5Zj3iqNpxaT32T7Me+OD9H/i1e5aBde+H7nnPu37w3g/9m1/98K8sH976on+wLK33vOYHXnPr31te7/mq02+ZJsvaWH7dbJT19qyQTWaZLMuvyzvrrFksyX3+NGu59UsWZ/4kacks76+vl99l3UPr++u3Wt7cjKfN63Xkrd/w9N9o+XB9f1NjfXPzHZZPrfvMOeecc494Q/71pH/13//3JZc86RHn1PLmkSNH97y5z3vsmbXcsrS+5yV//+0/+eyHPn30cw8+7Zfuuvied1/z8ld+77e9+LtuuvWW7/zuf/Qz73rPni85/Za1seed9ZaVsy6nPbe8eeZCcs4555zru2Vp7Xln99vXzFruld/39Xf+2F//Ox0e/offb3/NoXe95drX/sgrfus3HuP/b/Qjzqz179T2vLnenp9yOeecc86di7ffmfX9Lzn59n9+6I0/eui9P3X45+88/P63ffGDv/DEV33vFz3wwfv3JM+8M2fWMqSWN0//Udbm7wcX1fxyzjnnnDuH7rH/EXjnnHPOOXcWt9+fZjnnnHPOua3OzHLOOeecazkzyznnnHOu5cws55xzzrmWM7Occ84NuYP/txY59//3zCznnHNDzsxy59uZWc4554acmeXOt8vMehEAAAfKzAIAaGFmAQC0MLMAAFqYWQAALcwsAIAWZhYAQAszCwCghZkFANDCzAIAaGFmAQC0MLMAAFqYWQAALcwsAIAWZhYAQAszCwCghZkFANDCzAIAaGFmAQC0MLMAAFqYWQAALcwsAIAWZhYAQAszCwCghZkFANDCzAIAaGFmAQC0MLMAAFqYWQAALcwsAIAWZhYAQAszCwCghZkFANDCzAIAaGFmAQC0MLMAAFqYWQAALcwsAIAWZhYAQAszCwCghZkFANDCzAIAaGFmAQC0MLMAAFqYWQAALcwsAIAWZhYAQAszCwCghZkFANDCzAIAaGFmAQC0MLMAAFqYWQAALcwsAIAWZhYAQAszCwCghZkFANDi1Mx6znPMLACAA2ZmAQC0MLMAAFqYWQAALcwsAIAWZhYAQAszCwCghZkFANDCzAIAaGFmAQC0MLMAAFqYWQAALcwsAIAWb3vb28wsAICDZ2YBALTwl4YAAC3MLACAFmYWAEALMwsAoIWZBQDQwswCAGhhZgEAtDCzAABamFkAAC3MLACAFmYWAEALMwsAoIWZBQDQwswCAGhhZgEAtDCzAABamFkAAC3MLACAFmYWAEALMwsAoIWZBQDQwswCAGhhZgEAtDCzAABamFkAAC3MLACAFmYWAEALMwsAoIWZtbUvjJRyhYSGSblCQsOkXCGhYVKukNAwKVdIaJiUKyQ0TMoVEhom5QoJDZNyhYSGSTl2ZmZtLc/gMClXSGiYlCskNEzKFRIaJuUKCQ2TcoWEhkm5QkLDpFwhoWFSrpDQMClXSGiYlGNnZtbW8gwOk3KFhIZJuUJCw6RcIaFhUq6Q0DApV0homJQrJDRMyhUSGiblCgkNk3KFhIZJOXZmZm0tz+AwKVdIaJiUKyQ0TMoVEhom5QoJDZNyhYSGSblCQsOkXCGhYVKukNAwKVdIaJiUY2dm1tbyDA6TcoWEhkm5QkLDpFwhoWFSrpDQMClXSGiYlCskNEzKFRIaJuUKCQ2TcoWEhkk5dmZmbS3P4DApV0homJQrJDRMyhUSGiblCgkNk3KFhIZJuUJCw6RcIaFhUq6Q0DApV0homJRjZ2bW1vIMDpNyhYSGSblCQsOkXCGhYVKukNAwKVdIaJiUKyQ0TMoVEhom5QoJDZNyhYSGSTl2ZmZtLc/gMClXSGiYlCskNEzKFRIaJuUKCQ2TcoWEhkm5QkLDpFwhoWFSrpDQMClXSGiYlGNnZtbW8gwOk3KFhIZJuUJCw6RcIaFhUq6Q0DApV0homJQrJDRMyhUSGiblCgkNk3KFhIZJOXZ2ama9yMzaRp7BYVKukNAwKVdIaJiUKyQ0TMoVEhom5QoJDZNyhYSGSblCQsOkXCGhYVKukNAwKcfO1pn1DfmIfcgzOEzKFRIaJuUKCQ2TcoWEhkm5QkLDpFwhoWFSrpDQMClXSGiYlCskNEzKFRIaJuXY2fqXhmbWFvIMDpNyhYSGSblCQsOkXCGhYVKukNAwKVdIaJiUKyQ0TMoVEhom5QoJDZNyhYSGSTl25p/N2lqewWFSrpDQMClXSGiYlCskNEzKFRIaJuUKCQ2TcoWEhkm5QkLDpFwhoWFSrpDQMCnHzsysreUZHCblCgkNk3KFhIZJuUJCw6RcIaFhUq6Q0DApV0homJQrJDRMyhUSGiblCgkNk3LszMzaWp7BYVKukNAwKVdIaJiUKyQ0TMoVEhom5QoJDZNyhYSGSblCQsOkXCGhYVKukNAwKcfOzKyt5RkcJuUKCQ2TcoWEhkm5QkLDpFwhoWFSrpDQMClXSGiYlCskNEzKFRIaJuUKCQ2TcuzMzNpansFhUq6Q0DApV0homJQrJDRMyhUSGiblCgkNk3KFhIZJuUJCw6RcIaFhUq6Q0DApx87MrK3lGRwm5QoJDZNyhYSGSblCQsOkXCGhYVKukNAwKVdIaJiUKyQ0TMoVEhom5QoJDZNy7MzM2lqewWFSrpDQMClXSGiYlCskNEzKFRIaJuUKCQ2TcoWEhkm5QkLDpFwhoWFSrpDQMCnHzsysreUZHCblCgkNk3KFhIZJuUJCw6RcIaFhUq6Q0DApV0homJQrJDRMyhUSGiblCgkNk3LszMzaWp7BYVKukNAwKVdIaJiUKyQ0TMoVEhom5QoJDZNyhYSGSblCQsOkXCGhYVKukNAwKcfOzKyt5RkcJuUKCQ2TcoWEhkm5QkLDpFwhoWFSrpDQMClXSGiYlCskNEzKFRIaJuUKCQ2TcuzMzNpansFhUq6Q0DApV0homJQrJDRMyhUSGiblCgkNk3KFhIZJuUJCw6RcIaFhUq6Q0DApx87MrK3lGRwm5QoJDZNyhYSGSblCQsOkXCGhYVKukNAwKVdIaJiUKyQ0TMoVEhom5QoJDZNy7MzM2lqewWFSrpDQMClXSGiYlCskNEzKFRIaJuUKCQ2TcoWEhkm5QkLDpFwhoWFSrpDQMCnHzswsAIAWZhYAQAszCwCghZkFANDi+PHjZhYAwMEzswAAWphZAAAtzCwAgBZmFgBACzMLAKCFmQUA0MLMAgBoYWYBALQwswAAWphZAAAtzCwAgBZmFgBACzMLAKCFmQUA0MLMAgBoYWYBALQwswAAWphZAAAtzCwAgBZmFgBACzMLAKCFmQUA0MLMAgBoYWYBALQwswAAWphZAAAtzCwAgBbrzHpOPgIA4ICYWQAALcwsAIAWZtbWvjBSyhUSGiblCgkNk3KFhIZJuUJCw6RcIaFhUq6Q0DApV0homJQrJDRMyhUSGibl2JmZtbU8g8OkXCGhYVKukNAwKVdIaJiUKyQ0TMoVEhom5QoJDZNyhYSGSblCQsOkXCGhYVKOnZlZW8szOEzKFRIaJuUKCQ2TcoWEhkm5QkLDpFwhoWFSrpDQMClXSGiYlCskNEzKFRIaJuXYmZm1tTyDw6RcIaFhUq6Q0DApV0homJQrJDRMyhUSGiblCgkNk3KFhIZJuUJCw6RcIaFhUo6dmVlbyzM4TMoVEhom5QoJDZNyhYSGSblCQsOkXCGhYVKukNAwKVdIaJiUKyQ0TMoVEhom5diZmbW1PIPDpFwhoWFSrpDQMClXSGiYlCskNEzKFRIaJuUKCQ2TcoWEhkm5QkLDpFwhoWFSjp2ZWVvLMzhMyhUSGiblCgkNk3KFhIZJuUJCw6RcIaFhUq6Q0DApV0homJQrJDRMyhUSGibl2JmZtbU8g8OkXCGhYVKukNAwKVdIaJiUKyQ0TMoVEhom5QoJDZNyhYSGSblCQsOkXCGhYVKOnZlZW8szOEzKFRIaJuUKCQ2TcoWEhkm5QkLDpFwhoWFSrpDQMClXSGiYlCskNEzKFRIaJuXYmZm1tTyDw6RcIaFhUq6Q0DApV0homJQrJDRMyhUSGiblCgkNk3KFhIZJuUJCw6RcIaFhUo6dmVlbyzM4TMoVEhom5QoJDZNyhYSGSblCQsOkXCGhYVKukNAwKVdIaJiUKyQ0TMoVEhom5diZmbW1PIPDpFwhoWFSrpDQMClXSGiYlCskNEzKFRIaJuUKCQ2TcoWEhkm5QkLDpFwhoWFSjp2ZWVvLMzhMyhUSGiblCgkNk3KFhIZJuUJCw6RcIaFhUq6Q0DApV0homJQrJDRMyhUSGibl2JmZtbU8g8OkXCGhYVKukNAwKVdIaJiUKyQ0TMoVEhom5QoJDZNyhYSGSblCQsOkXCGhYVKOnZlZW8szOEzKFRIaJuUKCQ2TcoWEhkm5QkLDpFwhoWFSrpDQMClXSGiYlCskNEzKFRIaJuXY2R133GFmbSfP4DApV0homJQrJDRMyhUSGiblCgkNk3KFhIZJuUJCw6RcIaFhUq6Q0DApV0homJRjZ36atbU8g8OkXCGhYVKukNAwKVdIaJiUKyQ0TMoVEhom5QoJDZNyhYSGSblCQsOkXCGhYVKOnZlZW8szOEzKFRIaJuUKCQ2TcoWEhkm5QkLDpFwhoWFSrpDQMClXSGiYlCskNEzKFRIaJuXYmZm1tTyDw6RcIaFhUq6Q0DApV0homJQrJDRMyhUSGiblCgkNk3KFhIZJuUJCw6RcIaFhUo6dmVlbyzM4TMoVEhom5QoJDZNyhYSGSblCQsOkXCGhYVKukNAwKVdIaJiUKyQ0TMoVEhom5diZmbW1PIPDpFwhoWFSrpDQMClXSGiYlCskNEzKFRIaJuUKCQ2TcoWEhkm5QkLDpFwhoWFSjp2ZWVvLMzhMyhUSGiblCgkNk3KFhIZJuUJCw6RcIaFhUq6Q0DApV0homJQrJDRMyhUSGibl2Jl/ocPW8gwOk3KFhIZJuUJCw6RcIaFhUq6Q0DApV0homJQrJDRMyhUSGiblCgkNk3KFhIZJOXbmp1lbyzM4TMoVEhom5QoJDZNyhYSGSblCQsOkXCGhYVKukNAwKVdIaJiUKyQ0TMoVEhom5diZmbW1PIPDpFwhoWFSrpDQMClXSGiYlCskNEzKFRIaJuUKCQ2TcoWEhkm5QkLDpFwhoWFSjp2ZWQAALcwsAIAWZhYAQAszCwCghZkFANDCzAIAaGFmAQC0MLMAAFqYWQAALcwsAIAWZhYAQAszCwCghZkFANDCzAIAaGFmAQC0MLMAAFqYWQAALcwsAIAWZhYAQAszCwCghZkFANDCzAIAaGFmAQC0MLMAAFqYWQAALcwsAIAWZhYAQAszCwCgxVve8hYzCwDg4JlZAAAt/KUhAEALMwsAoIWZBQDQwswCAGhhZgEAtDCztvaFkVKukNAwKVdIaJiUKyQ0TMoVEhom5QoJDZNyhYSGSblCQsOkXCGhYVKukNAwKcfOzKyt5RkcJuUKCQ2TcoWEhkm5QkLDpFwhoWFSrpDQMClXSGiYlCskNEzKFRIaJuUKCQ2TcuzMzNpansFhUq6Q0DApV0homJQrJDRMyhUSGiblCgkNk3KFhIZJuUJCw6RcIaFhUq6Q0DApx87MrK3lGRwm5QoJDZNyhYSGSblCQsOkXCGhYVKukNAwKVdIaJiUKyQ0TMoVEhom5QoJDZNy7MzM2lqewWFSrpDQMClXSGiYlCskNEzKFRIaJuUKCQ2TcoWEhkm5QkLDpFwhoWFSrpDQMCnHzsysreUZHCblCgkNk3KFhIZJuUJCw6RcIaFhUq6Q0DApV0homJQrJDRMyhUSGiblCgkNk3LszMzaWp7BYVKukNAwKVdIaJiUKyQ0TMoVEhom5QoJDZNyhYSGSblCQsOkXCGhYVKukNAwKcfOzKyt5RkcJuUKCQ2TcoWEhkm5QkLDpFwhoWFSrpDQMClXSGiYlCskNEzKFRIaJuUKCQ2TcuzMzNpansFhUq6Q0DApV0homJQrJDRMyhUSGiblCgkNk3KFhIZJuUJCw6RcIaFhUq6Q0DApx87MrK3lGRwm5QoJDZNyhYSGSblCQsOkXCGhYVKukNAwKVdIaJiUKyQ0TMoVEhom5QoJDZNy7MzM2lqewWFSrpDQMClXSGiYlCskNEzKFRIaJuUKCQ2TcoWEhkm5QkLDpFwhoWFSrpDQMCnHzsysreUZHCblCgkNk3KFhIZJuUJCw6RcIaFhUq6Q0DApV0homJQrJDRMyhUSGiblCgkNk3LszMzaWp7BYVKukNAwKVdIaJiUKyQ0TMoVEhom5QoJDZNyhYSGSblCQsOkXCGhYVKukNAwKcfOzKyt5RkcJuUKCQ2TcoWEhkm5QkLDpFwhoWFSrpDQMClXSGiYlCskNEzKFRIaJuUKCQ2TcuzMzNpansFhUq6Q0DApV0homJQrJDRMyhUSGiblCgkNk3KFhIZJuUJCw6RcIaFhUq6Q0DApx87MrK3lGRwm5QoJDZNyhYSGSblCQsOkXCGhYVKukNAwKVdIaJiUKyQ0TMoVEhom5QoJDZNy7MzM2lqewWFSrpDQMClXSGiYlCskNEzKFRIaJuUKCQ2TcoWEhkm5QkLDpFwhoWFSrpDQMCnHzsysreUZHCblCgkNk3KFhIZJuUJCw6RcIaFhUq6Q0DApV0homJQrJDRMyhUSGiblCgkNk3LszMzaWp7BYVKukNAwKVdIaJiUKyQ0TMoVEhom5QoJDZNyhYSGSblCQsOkXCGhYVKukNAwKcfOzKyt5RkcJuUKCQ2TcoWEhkm5QkLDpFwhoWFSrpDQMClXSGiYlCskNEzKFRIaJuUKCQ2TcuzMzNpansFhUq6Q0DApV0homJQrJDRMyhUSGiblCgkNk3KFhIZJuUJCw6RcIaFhUq6Q0DApx87MrK3lGRwm5QoJDZNyhYSGSblCQsOkXCGhYVKukNAwKVdIaJiUKyQ0TMoVEhom5QoJDZNy7MzM2lqewWFSrpDQMClXSGiYlCskNEzKFRIaJuUKCQ2TcoWEhkm5QkLDpFwhoWFSrpDQMCnHzsysreUZHCblCgkNk3KFhIZJuUJCw6RcIaFhUq6Q0DApV0homJQrJDRMyhUSGiblCgkNk3LszMzaWp7BYVKukNAwKVdIaJiUKyQ0TMoVEhom5QoJDZNyhYSGSblCQsOkXCGhYVKukNAwKcfOzCwAgBZmFgBACzMLAKCFmQUA0MLMAgBoYWYBALQwswAAWrz5zW82swAADp6ZBQDQwswCAGhhZgEAtDCzAABanJpZr/rxH8lHAAAckFMz68QJP80CADhgZhYAQAszCwCgxal/C7yZBQBw4MwsAIAWZhYAQAszCwCghZkFANDCzAIAaHHjjTeaWQAAB+/kyZNmFgDAwfOvJwUAaOGnWQAALcwsAIAW/tIQAKDFqZ9mfe2r35OPAAA4IP7SEACghZkFANDCzAIAaOEfgQcAaGFmAQC08JeGAAAtzCwAgBZmFgBAixtvvNHMAgA4eMePHzezAAAOnpkFANDCzAIAaGFmAQC0MLMAAFqYWQAALcwsAIAWZhYAQAszCwCghZkFANDCzAIAaGFmAQC0MLMAAFqYWQAALcwsAIAWZhYAQItTM+smMwsA4KCtP816aT4CAOCAvOlNbzKzAAAO3jqz/KUhAMABM7MAAFqYWQAALfwLHQAAWvhpFgBACz/NAgBo4adZAAAt/DQLAKCFmQUA0MLMAgBoYWYBALQwswAAWphZAAAtzCwAgBZmFgBACzMLAKCFmQUA0MLMAgBocWpmXf9D78pHAAAcED/NAgBoYWYBALQwswAAWphZAAAtzCwAgBZmFgBACzMLAKCFmQUA0MLMAgBoYWYBALQwswAAWphZAAAtzCwAgBZmFgBACzMLAKCFmQUA0MLMAgBoYWYBALQwswAAWphZAAAtzCwAgBZmFgBACzMLAKCFmQUA0MLMAgBoYWYBALQwswAAWphZAAAtzCwAgBZmFgBACzMLAKCFmQUA0MLMAgBoYWYBALQwswAAWpyaWSdPvjAfAQBwQMwsAIAWZhYAQAszCwCghZkFANDCzAIAaHFqZn2rmQUAcND8NAsAoIWZBQDQwswCAGhhZgEAtDCzAABamFkAAC3MLACAFmYWAEALMwsAoMWpmXXixIl8BADAATGzAABamFkAAC3MLACAFmYWAEALMwsAoMWpmfWNZhYAwEHz0ywAgBZmFgBACzMLAKDFG9/4RjMLAODg+WkWAECLUzPr+n/6znwEAMAB8dMsAIAWZhYAQAszCwCghf+mIQBACz/NAgBoYWYBALQwswAAWphZAAAtzCwAgBZmFgBACzMLAKCFmQUA0MLMAgBoYWYBALQwswAAWphZAAAtzCwAgBZmFgBACzMLAKCFmQUA0MLMAgBoYWYBALQwswAAWphZAAAtzCwAgBZmFgBACzMLAKCFmQUA0MLMAgBoYWYBALQwswAAWphZAAAtzCwAgBZmFgBACzMLAKCFmQUA0MLMAgBoYWYBALQwswAAWphZAAAtzCwAgBZmFgBACzMLAKCFmQUA0MLMAgBoYWYBALQwswAAWphZAAAtzCwAgBZmFgBACzMLAKCFmQUA0MLMAgBoYWYBALQwswAAWphZAAAtzCwAgBZmFgBACzMLAKCFmQUA0MLMAgBoYWYBALQwswAAWphZAAAtzCwAgBZmFgBACzMLAKCFmQUA0MLMAgBoYWYBALQwswAAWphZAAAtjh07ZmYBABw8MwsAoIWZBQDQwswCAGhhZgEAtDCzAABavOENbzCzAAAOnp9mAQC0MLMAAFqYWQAALcwsAIAWZhYAQAszCwCghZkFANDi+PHjZhYAwMEzswAAWphZAAAtzCwAgBZmFgBACzMLAKCFmQUA0MLMAgBoYWYBALQwswAAWphZAAAtzCwAgBZmFgBACzMLAKDFsWPHzCwAgINnZgEAtDCzAABamFkAAC3MLACAFmYWAEALMwsAoIWZBQDQwswCAGhhZgEAtDCzAABamFkAAC3MLACAFmYWAEALMwsAoIWZBQDQwswCAGhhZgEAtDCzAABanJpZt5pZAAAH7dTMeomZBQBw0MwsAIAW/tIQAKCFfwQeAKCFmQUA0MLMAgBoYWYBALQwswAAWphZAAAtzCwAgBZmFgBACzMLAKCFmQUA0MLMAgBoYWYBALQ4NbOuP/HqfAQAwAFZZ5afZgEAHDB/aQgA0MLMAgBoYWYBALQwswAAWphZAAAtzCwAgBZmFgBACzMLAKCFmQVccL5whnwC4ECZWcAFJKuqkBDAATGzgAtFxtSjShTgIJhZwAUhM2of8gUAOzOzgPNfBtS+5csAdmNmAee5TKct5YsBdmBmAee57KYt5YsBdmBmAeezjKazkm8BcLbMLOB8lsV0VvItAM6WmQWcz7KYzkq+BcDZMrOA81kW01nJtwA4W2YWcD7LYjor+RYAZ8vMAs5nWUxnJd8C4GyZWcB5LqNpS/ligB2YWcB5LrtpS/ligB2YWcD5L9Np3/JlALsxs4ALQgbUPuQLAHZmZgEXisyoR5UowEEws4ALSMZUISGAA2JmARecrKrT5BMAB8rMAh4PmTPsQ/7IgHPfwzPrW/5FPgLokQXBPuSPDDj3+WkW8HjIgmAf8kcGnPvMLODxkAXBPuSPDDj3mVnA4yELgn3IHxlw7jOzgMdDFgT7kD8y4NxnZgGPhywI9iF/ZMC5z8wCHg9ZEOxD/siAc5+ZBTwesiDYh/yRAec+Mwt4PGRBsA/5IwPOfWYWAEALMwsAoIWZBQDQwswCAGhhZgEAtDCzAABamFkAAC3MLACAFmYWAEALMwsAoIWZBQDQ4vjx42YWAMDBM7MAAFqYWQAALcwsAIAWZhYAQAszCwCghZkFANDCzAIAaGFmAQC0MLMAAFqYWQAALcwsAIAWZhYAQAszCwCgxbFjx8wsAICDZ2YBALQwswAAWpyaWc81swAADpqfZgEAtDCzAABamFkAAC38e7MAAFqcmlnL/3zzN39z3gAAYGfLuLryyisvuuKKr7z55pvzHgAAO7vpppu+4iu+4qLLLnvGyZMn8x4AADu74YYbLr300ouOHn3SiRPPufXWW/M2AAA7uOWWW44fP3748OGLDh/+W09/+tOf//zn5zMAAOzguuuue8pTnnLo0KFTM2u5r/zKZy1Ly8+0AADO2i233LJsrMsvv/wJD8vMWu5pT3v6iRMnTp48efPNN/vvHgIA7NMynG666aYbbrjh+PHjT3nKU5aBdejQob8xsw4fPnz06NEv//LLrrjiimPHjl1zzYlrGlx99Xl88GiOH3fuXLrnPe+6v/03XfVIrr/++rwa77rrrsurc9zrX//6vNq3s/gSTrfsokf37Gc/+xnPeMZTn/rUiy++eBlYqyc84Qn/F418li9NeDEHAAAAAElFTkSuQmCC;" parent="1" vertex="1">
                    <mxGeometry x="220" y="230.00000000000003" width="391.22" height="308.46" as="geometry"/>
                </mxCell>
                <mxCell id="3" value="" style="whiteSpace=wrap;html=1;fillColor=none;strokeColor=#FFB366;strokeWidth=3;" parent="1" vertex="1">
                    <mxGeometry x="220" y="230" width="390" height="310" as="geometry"/>
                </mxCell>
                <mxCell id="4" value="" style="whiteSpace=wrap;html=1;fillColor=none;strokeColor=#FFB366;strokeWidth=3;" parent="1" vertex="1">
                    <mxGeometry x="270" y="293" width="22" height="13" as="geometry"/>
                </mxCell>
                <mxCell id="10" style="edgeStyle=none;html=1;exitX=1;exitY=0.5;exitDx=0;exitDy=0;" parent="1" edge="1">
                    <mxGeometry relative="1" as="geometry">
                        <mxPoint x="426.61" y="517" as="sourcePoint"/>
                        <mxPoint x="420" y="517" as="targetPoint"/>
                    </mxGeometry>
                </mxCell>
                <mxCell id="14" value="" style="whiteSpace=wrap;html=1;fillColor=none;strokeColor=#FFB366;strokeWidth=3;" parent="1" vertex="1">
                    <mxGeometry x="403" y="513" width="47" height="7" as="geometry"/>
                </mxCell>
                <mxCell id="15" value="" style="whiteSpace=wrap;html=1;fillColor=none;strokeColor=#FFB366;strokeWidth=3;" parent="1" vertex="1">
                    <mxGeometry x="418" y="500" width="20" height="13" as="geometry"/>
                </mxCell>
                <mxCell id="17" style="edgeStyle=none;html=1;entryX=0.08;entryY=0.002;entryDx=0;entryDy=0;entryPerimeter=0;strokeColor=#FF8000;" parent="1" source="16" target="3" edge="1">
                    <mxGeometry relative="1" as="geometry"/>
                </mxCell>
                <mxCell id="16" value="&lt;font style=&quot;font-size: 18px;&quot; color=&quot;#ff8000&quot;&gt;画面&lt;/font&gt;" style="text;html=1;strokeColor=none;fillColor=none;align=center;verticalAlign=middle;whiteSpace=wrap;rounded=0;strokeWidth=3;" parent="1" vertex="1">
                    <mxGeometry x="220" y="190" width="60" height="20" as="geometry"/>
                </mxCell>
                <mxCell id="20" value="&lt;font style=&quot;font-size: 18px;&quot; color=&quot;#ff8000&quot;&gt;ブロック&lt;/font&gt;" style="text;html=1;strokeColor=none;fillColor=none;align=center;verticalAlign=middle;whiteSpace=wrap;rounded=0;strokeWidth=3;" parent="1" vertex="1">
                    <mxGeometry x="251" y="250" width="79" height="20" as="geometry"/>
                </mxCell>
                <mxCell id="21" style="edgeStyle=none;html=1;entryX=0.08;entryY=0.002;entryDx=0;entryDy=0;entryPerimeter=0;strokeColor=#FF8000;" parent="1" edge="1">
                    <mxGeometry relative="1" as="geometry">
                        <mxPoint x="280.00190071848465" y="272.38" as="sourcePoint"/>
                        <mxPoint x="280.81000000000006" y="292.9999999999999" as="targetPoint"/>
                    </mxGeometry>
                </mxCell>
                <mxCell id="23" value="&lt;font style=&quot;font-size: 18px;&quot; color=&quot;#ff8000&quot;&gt;ボール&lt;/font&gt;" style="text;html=1;strokeColor=none;fillColor=none;align=center;verticalAlign=middle;whiteSpace=wrap;rounded=0;strokeWidth=3;" parent="1" vertex="1">
                    <mxGeometry x="396.5" y="457" width="60" height="20" as="geometry"/>
                </mxCell>
                <mxCell id="24" style="edgeStyle=none;html=1;entryX=0.08;entryY=0.002;entryDx=0;entryDy=0;entryPerimeter=0;strokeColor=#FF8000;" parent="1" edge="1">
                    <mxGeometry relative="1" as="geometry">
                        <mxPoint x="425.50190071848465" y="479.38" as="sourcePoint"/>
                        <mxPoint x="426.31000000000006" y="499.9999999999999" as="targetPoint"/>
                    </mxGeometry>
                </mxCell>
                <mxCell id="25" value="&lt;font style=&quot;font-size: 18px;&quot; color=&quot;#ff8000&quot;&gt;バー&lt;/font&gt;" style="text;html=1;strokeColor=none;fillColor=none;align=center;verticalAlign=middle;whiteSpace=wrap;rounded=0;strokeWidth=3;" parent="1" vertex="1">
                    <mxGeometry x="320" y="513" width="60" height="20" as="geometry"/>
                </mxCell>
                <mxCell id="26" style="edgeStyle=none;html=1;entryX=0;entryY=0.5;entryDx=0;entryDy=0;strokeColor=#FF8000;exitX=1;exitY=0.5;exitDx=0;exitDy=0;" parent="1" source="25" edge="1">
                    <mxGeometry relative="1" as="geometry">
                        <mxPoint x="349.00190071848465" y="535.38" as="sourcePoint"/>
                        <mxPoint x="403" y="519.5" as="targetPoint"/>
                    </mxGeometry>
                </mxCell>
            </root>
        </mxGraphModel>
    </diagram>
</mxfile>